<svg preserveAspectRatio="none" overflow="visible" style="display: block;" width="45" height="47" viewBox="0 0 45 47" fill="none" xmlns="http://www.w3.org/2000/svg">
<g id="Bell_pin">
<path id="Subtract" d="M22.4996 4.87493C24.4954 4.87493 25.6571 4.86868 26.6627 5.09564C27.7114 5.33241 28.6926 5.75029 29.569 6.31732C29.0397 6.7478 28.577 7.25653 28.1959 7.82415C27.5892 7.47158 26.9259 7.20567 26.2223 7.04681C25.4882 6.88115 24.6003 6.87493 22.4996 6.87493C20.3989 6.87493 19.5111 6.88108 18.777 7.04681C16.4022 7.58313 14.4764 9.31522 13.692 11.6201C13.4496 12.3324 13.3498 13.2141 13.1276 15.3027L12.6002 20.2587C12.4274 21.8829 12.3306 22.8355 12.0358 23.747C12.0342 23.7518 12.0325 23.7569 12.0309 23.7617C11.7345 24.6725 11.2536 25.4998 10.4401 26.9159L8.21254 30.7939C7.81332 31.4888 7.57335 31.9119 7.4518 32.2216C7.44984 32.2266 7.44777 32.2315 7.44594 32.2363C7.45129 32.2371 7.45693 32.2393 7.46254 32.2402C7.79161 32.289 8.27828 32.2919 9.07973 32.2919H35.9196C36.721 32.2919 37.2076 32.289 37.5368 32.2402C37.5421 32.2394 37.5473 32.2371 37.5524 32.2363C37.5506 32.2316 37.5494 32.2264 37.5475 32.2216C37.4259 31.9119 37.1859 31.4888 36.7868 30.7939L34.5592 26.9159C33.7458 25.4999 33.2648 24.6725 32.9684 23.7617C32.9669 23.7569 32.9651 23.7518 32.9635 23.747C32.6687 22.8356 32.5718 21.8828 32.3991 20.2587L32.2096 18.4853C32.7015 18.6017 33.2161 18.6659 33.7496 18.6659C33.9145 18.6659 34.0777 18.658 34.2389 18.6464L34.3883 20.0478C34.5695 21.7509 34.6495 22.463 34.8659 23.1318C34.867 23.1353 34.8686 23.1389 34.8698 23.1425C35.0873 23.811 35.4404 24.4346 36.2936 25.9199L38.5202 29.7968C38.8859 30.4335 39.22 31.0101 39.4088 31.4911C39.601 31.9808 39.7536 32.6442 39.3776 33.2939C39.0016 33.943 38.3509 34.1414 37.8307 34.2187C37.3197 34.2945 36.6536 34.2919 35.9196 34.2919H9.07973C8.34566 34.2919 7.67959 34.2946 7.16859 34.2187C6.64846 34.1414 5.99765 33.943 5.62172 33.2939C5.24588 32.6443 5.39831 31.9808 5.59047 31.4911C5.77927 31.0101 6.11336 30.4335 6.47914 29.7968L8.7057 25.9199C9.55897 24.4345 9.91203 23.811 10.1295 23.1425C10.1307 23.1389 10.1323 23.1354 10.1334 23.1318C10.3498 22.4629 10.4298 21.751 10.611 20.0478L11.1383 15.0917C11.3495 13.1071 11.4664 11.9515 11.7985 10.9755C12.807 8.0121 15.2832 5.78514 18.3366 5.09564C19.3422 4.86862 20.5039 4.87493 22.4996 4.87493ZM31.818 8.39251C32.4088 9.16146 32.8794 10.031 33.2008 10.9755C33.5329 11.9515 33.6498 13.1071 33.861 15.0917L33.9215 15.662C33.8647 15.6647 33.8071 15.6659 33.7496 15.6659C33.0572 15.6659 32.4089 15.4697 31.8522 15.1279C31.6428 13.1643 31.5428 12.3122 31.3073 11.6201C31.0971 11.0025 30.8028 10.4276 30.442 9.90423C30.762 9.28005 31.2389 8.75682 31.818 8.39251Z" fill="#D66E0E"/>
<path id="Ellipse 45" d="M17.0667 34.5933C17.3872 36.4672 18.0933 38.123 19.0757 39.3039C20.0581 40.4849 21.2617 41.125 22.5 41.125C23.7383 41.125 24.9419 40.4849 25.9243 39.3039C26.9067 38.123 27.6128 36.4672 27.9333 34.5933" stroke="#D66E0E" stroke-width="2" stroke-linecap="round"/>
<path id="Ellipse 6" d="M33.75 7.33333C36.1175 7.33333 38 9.33178 38 11.7503C37.9998 14.1687 36.1174 16.1663 33.75 16.1663C31.3826 16.1663 29.5002 14.1687 29.5 11.7503C29.5 9.33178 31.3825 7.33333 33.75 7.33333Z" fill="#D92B1F" stroke="#D66E0E"/>
</g>
</svg>
